<?xml version="1.0" standalone="no"?><!DOCTYPE svg PUBLIC "-//W3C//DTD SVG 1.1//EN" "http://www.w3.org/Graphics/SVG/1.1/DTD/svg11.dtd"><svg t="1628219087038" class="icon" viewBox="0 0 1024 1024" version="1.1" xmlns="http://www.w3.org/2000/svg" p-id="3934" xmlns:xlink="http://www.w3.org/1999/xlink" width="200" height="200"><defs><style type="text/css"></style></defs><path d="M110.3872 576.896a26.75712 26.75712 0 0 1-26.65472-24.25856 436.55168 436.55168 0 0 1-1.81248-39.79264 429.056 429.056 0 0 1 61.60896-221.76256A26.76736 26.76736 0 0 1 189.44 318.58688a375.83872 375.83872 0 0 0-53.95456 194.26304c0 11.64288 0.5376 23.39328 1.59744 34.92352a26.72128 26.72128 0 0 1-24.2432 29.01504 27.88864 27.88864 0 0 1-2.45248 0.10752z m117.19168-323.19488a26.69056 26.69056 0 0 1-18.944-45.568A433.90464 433.90464 0 0 1 809.472 197.50912a26.74176 26.74176 0 1 1-36.54144 39.05024 380.15488 380.15488 0 0 0-526.40256 9.3184 26.76736 26.76736 0 0 1-18.94912 7.82336z m674.41664 406.63552a26.76736 26.76736 0 0 1-25.6-34.6624 377.22112 377.22112 0 0 0-44.69248-319.68256 26.76736 26.76736 0 0 1 44.81024-29.2864 430.40768 430.40768 0 0 1 51.03616 364.89728 26.80832 26.80832 0 0 1-25.55392 18.73408z m-761.15456 59.392a26.69056 26.69056 0 0 1-18.7392-45.77792c64.26112-62.58688 55.72096-124.82048 55.61856-125.44l-0.31744-2.64192a332.00128 332.00128 0 0 1 210.432-332.8 335.59552 335.59552 0 0 1 48.26112-14.9248 340.6336 340.6336 0 0 1 52.03456-7.68 335.3088 335.3088 0 0 1 338.84672 222.208 26.78784 26.78784 0 0 1-50.5856 17.63328A281.6 281.6 0 0 0 491.8272 243.75808a286.05952 286.05952 0 0 0-43.76064 6.44096 280.12032 280.12032 0 0 0-217.25184 291.11808c1.71008 13.08672 8.36608 93.30176-71.23968 170.8288a26.78272 26.78272 0 0 1-18.73408 7.60832zM754.688 866.304a26.73664 26.73664 0 0 1-24.52992-37.40672c73.728-167.61344 60.59008-308.56704 60.45184-309.96992a26.79808 26.79808 0 0 1 53.31456-5.44768c0.65024 6.26688 15.0272 155.648-64.68096 336.83968a26.8032 26.8032 0 0 1-24.55552 15.98464zM195.53792 805.08928a26.68032 26.68032 0 0 1-15.52384-48.4608 168.86272 168.86272 0 0 0 64.85504-89.46688 26.79296 26.79296 0 0 1 52.36224 11.37664 219.8784 219.8784 0 0 1-86.21568 121.63584 26.74688 26.74688 0 0 1-15.47776 4.9152z m109.36832-199.86432a27.4432 27.4432 0 0 1-4.88448-0.44544 26.70592 26.70592 0 0 1-21.504-31.08352 613.18144 613.18144 0 0 0 8.59648-66.97472 218.4448 218.4448 0 0 1 50.8672-136.77056l0.77824-0.93184c87.04-99.7888 197.12-87.04 243.2-66.34496a26.71104 26.71104 0 1 1-21.9136 48.7168c-4.28032-1.85344-98.59072-41.17504-180.42368 52.17792a165.74464 165.74464 0 0 0-38.912 104.73984 655.22688 655.22688 0 0 1-9.45664 75.05408 26.78272 26.78272 0 0 1-26.34752 21.8624zM602.47552 942.08a26.7008 26.7008 0 0 1-22.016-41.87136c106.45504-153.32864 113.1008-333.70112 107.03872-384.7936l-0.1792-2.49856c-1.42336-59.12064-43.98592-110.91456-44.416-111.42144a26.752 26.752 0 0 1 40.96-34.44224c2.23744 2.6368 54.58944 65.24928 57.0112 143.36 6.43072 57.92256-1.3056 254.50496-116.3264 420.1728a26.79808 26.79808 0 0 1-22.07232 11.4944z" fill="#2966C1" p-id="3935"></path><path d="M272.7936 864.768a26.624 26.624 0 0 1-20.18304-44.032c77.312-89.43616 90.1888-118.75328 108.032-159.32928a1310.99136 1310.99136 0 0 1 9.1136-20.41344c18.01728-39.24992 18.944-105.42592 17.80736-127.616l-0.03584-1.3824a127.67744 127.67744 0 0 1 255.35488 0 26.6752 26.6752 0 0 1-53.3504 0 74.32704 74.32704 0 0 0-148.64896-0.5888c0.44032 9.7536 3.45088 94.96064-22.6304 151.78752-3.18464 6.9376-6.02624 13.40416-8.76544 19.6352-18.9696 43.14624-33.95584 77.22496-116.49536 172.7232a26.624 26.624 0 0 1-20.1984 9.216z m93.15328 49.32096a26.624 26.624 0 0 1-19.1232-45.21472c0.7424-0.76288 75.48928-78.336 112.256-168.56064 36.49536-89.5488 29.59872-187.60192 29.52704-188.57472a26.6752 26.6752 0 0 1 53.20192-3.99872c0.33792 4.51072 7.85408 111.616-33.31584 212.66432-40.77056 100.04992-120.05888 182.1696-123.392 185.61536a26.624 26.624 0 0 1-19.15392 8.05376zM477.02528 942.08a26.624 26.624 0 0 1-21.632-42.19904c131.24608-182.22592 129.69472-289.70496 129.65888-290.76992a26.6752 26.6752 0 0 1 53.32992-1.536c0.14848 5.07904 2.00192 126.72-139.67872 323.4304A26.65984 26.65984 0 0 1 477.02528 942.08z" fill="#FD9A16" p-id="3936"></path></svg>