<?xml version="1.0" standalone="no"?><!DOCTYPE svg PUBLIC "-//W3C//DTD SVG 1.1//EN" "http://www.w3.org/Graphics/SVG/1.1/DTD/svg11.dtd"><svg t="1628244532319" class="icon" viewBox="0 0 1024 1024" version="1.1" xmlns="http://www.w3.org/2000/svg" p-id="9756" xmlns:xlink="http://www.w3.org/1999/xlink" width="200" height="200"><defs><style type="text/css"></style></defs><path d="M153.176 633.08L564.85 221.405l236.383 236.383L389.56 869.463z" fill="#8ADCFF" p-id="9757"></path><path d="M860.8 398.3L624.4 161.9l38.1-38.1c40.7-40.7 106.6-40.7 147.3 0l89.1 89.1c40.7 40.7 40.7 106.6 0 147.3l-38.1 38.1z" fill="#F77490" p-id="9758"></path><path d="M564.848 221.435l59.538-59.538 236.383 236.384-59.538 59.538z" fill="#FDF17F" p-id="9759"></path><path d="M389.6 869.5l-185.2 38.1L92 930.7l23.1-112.4 38.1-185.2z" fill="#FBD1AA" p-id="9760"></path><path d="M204.4 907.6L92 930.7l23.1-112.4z" fill="#889CA9" p-id="9761"></path><path d="M193.992 673.945L605.665 262.27l53.104 53.103-411.674 411.674zM295.684 775.658l411.673-411.673 40.73 40.729-411.675 411.673z" fill="#46CDFB" p-id="9762"></path><path d="M336.458 816.406L748.13 404.732l12.374 12.374L348.832 828.78z" fill="#15B7FF" p-id="9763"></path><path d="M348.77 828.666l411.675-411.673 40.8 40.8L389.57 869.465z" fill="#15B7FF" p-id="9764"></path><path d="M903.3 355.8l-42.5 42.5-53.2-53.2 42.5-42.5c38.2-38.2 38.2-100.2 0-138.4l53.2 53.2c38.3 38.2 38.3 100.2 0 138.4z" fill="#F65D73" p-id="9765"></path><path d="M748.141 404.692l59.538-59.538 53.174 53.174-59.538 59.538z" fill="#FAD672" p-id="9766"></path><path d="M389.6 869.5l-185.2 38.1L92 930.7l13.8-66.9 45.4-9.4 185.3-38z" fill="#F7BD81" p-id="9767"></path><path d="M204.4 907.6L92 930.7l13.8-66.9 45.4-9.4z" fill="#73859E" p-id="9768"></path><path d="M906 205.8l-89.1-89.1c-44.5-44.5-116.9-44.5-161.4 0l-37.7 37.7c-0.1 0.1-0.3 0.2-0.4 0.4L558.1 214l-0.3 0.3L146.1 626c-1.7 1.7-2.6 3.8-2.9 5.9l-37.9 184.4-23.1 112.4c-0.1 0.4-0.1 0.8-0.2 1.2-0.2 2.9 0.8 5.8 2.9 7.8 1.2 1.2 2.6 2 4.2 2.5 0.9 0.3 1.9 0.4 2.9 0.4 0.7 0 1.3-0.1 2-0.2l112.4-23.1 185.2-38.1c2.3-0.5 4.3-1.8 5.8-3.5L808 465.2l0.3-0.3 58.9-58.9c0.2-0.2 0.5-0.4 0.7-0.6l38.1-38.1c44.5-44.5 44.5-117 0-161.5zM624.4 176l222.2 222.2-45.4 45.4L579 221.4l45.4-45.4zM207.7 896.7L126 815l33.3-161.7 27.5 27.5c0.1 0.1 0.1 0.2 0.2 0.3l53.1 53.1c0.1 0.1 0.2 0.2 0.3 0.2L288 782c0.2 0.3 0.4 0.5 0.7 0.8l40.6 40.5 0.2 0.2 12.4 12.4c0.1 0.1 0.2 0.2 0.3 0.2l27.3 27.3-161.8 33.3z m357.1-661.2l26.7 26.7L194 659.8l-26.7-26.7 397.5-397.6zM208.2 673.9l397.5-397.5 39 39-397.6 397.5-38.9-39z m101.7 101.7l397.5-397.5 39 39-397.5 397.5-39-39z m-14.2-14.1L261.3 727l397.5-397.5 34.4 34.4-397.5 397.6z m-174.5 77l63 63-79.4 16.3 16.4-79.3z m268.3 16.8L363 828.8l397.5-397.5 26.5 26.5-397.5 397.5z m502.3-502.2l-31 31-222.2-222.2 31-31c36.7-36.7 96.4-36.7 133.2 0l89.1 89.1c36.6 36.7 36.6 96.4-0.1 133.1z" fill="#00435B" p-id="9769"></path></svg>